<?xml version="1.0" standalone="yes"?>
<svg xmlns="http://www.w3.org/2000/svg" width="320" height="320">
<path style="fill:#ffffff; stroke:none;" d="M0 0L0 320L320 320L320 0L0 0z"/>
<path style="fill:#24a4df; stroke:none;" d="M133.667 36.3333L134.333 36.6667L133.667 36.3333z"/>
<path style="fill:#27abe1; stroke:none;" d="M42 244C72.3005 229.836 100.665 207.831 129 190.05C180.359 157.822 232.433 126.46 283 93L283 92C223.047 115.26 164.123 144.491 106 172L138 87L140 87L153.464 118L157.579 128.816L148 136.576L121 154L121 155L198 122C192.917 104.218 182.905 86.8562 175.306 70C171.51 61.5798 168.605 50.7796 161.895 44.1744C153.211 35.6261 140.053 33.7901 129.001 38.4645C111.596 45.8258 106.604 72.854 100.681 89C87.893 123.853 74.1278 158.406 60.6566 193C54.5042 208.8 44.0961 227.179 42 244z"/>
<path style="fill:#24a4df; stroke:none;" d="M148 36L149 37L148 36M130.667 37.3333L131.333 37.6667L130.667 37.3333M151 37L152 38L151 37M128 38L129 39L128 38M153 38L154 39L153 38M126 39L127 40L126 39M157 40L158 41L157 40M123 41L124 42L123 41M158 41L159 42L158 41M121 43L122 44L121 43M118 46L119 47L118 46M165 48L166 49L165 48M116 49L117 50L116 49M166 50L167 51L166 50M167 52L168 53L167 52M168 54L169 55L168 54M112 58L113 59L112 58M170 59L171 60L170 59M171 61L172 62L171 61M110 63L111 64L110 63M172 63L173 64L172 63M173 65L174 66L173 65M109 66L110 67L109 66M174 68L175 69L174 68M175 70L176 71L175 70M107 71L108 72L107 71M176 72L177 73L176 72M177 74L178 75L177 74M105 76L106 77L105 76M178 77L179 78L178 77M104 79L105 80L104 79M179 79L180 80L179 79M180 81L181 82L180 81M181 83L182 84L181 83M102 84L103 85L102 84M182 86L183 87L182 86M138.667 87.3333L139.333 87.6667L138.667 87.3333M183 88L184 89L183 88M100 89L101 90L100 89M140 89L141 90L140 89M184 90L185 91L184 90M136 91L137 92L136 91M141 91L142 92L141 91M283 91L283 93L285 91L283 91M99 92L100 93L99 92M185 92L186 93L185 92M281 92L282 93L281 92M279 93L280 94L279 93M98 94L99 95L98 94M276 94L277 95L276 94M280 94L281 95L280 94M274 95L275 96L274 95M134 96L135 97L134 96M272 96L273 97L272 96M277 96L278 97L277 96M97 97L98 98L97 97M187 97L188 98L187 97M275 97L276 98L275 97M267 98L268 99L267 98M274 98L275 99L274 98M133 99L134 100L133 99M188 99L189 100L188 99M265 99L266 100L265 99M272 99L273 100L272 99M263 100L264 101L263 100M132 101L133 102L132 101M189 101L190 102L189 101M261 101L262 102L261 101M269 101L270 102L269 101M95 102L96 103L95 102M258 102L259 103L258 102M267 102L268 103L267 102M256 103L257 104L256 103M266 103L267 104L266 103M131 104L132 105L131 104M147 104L148 105L147 104M254 104L255 105L254 104M264 104L265 105L264 104M94 105L95 106L94 105M252 105L253 106L252 105M148 106L149 107L148 106M191 106L192 107L191 106M249 106L250 107L249 106M261 106L262 107L261 106M93 107L94 108L93 107M247 107L248 108L247 107M149 108L150 109L149 108M192 108L193 109L192 108M245 108L246 109L245 108M258 108L259 109L258 108M243 109L244 110L243 109M256 109L257 110L256 109M150 110L151 111L150 110M193 110L194 111L193 110M241 110L242 111L241 110M255 110L256 111L255 110M238 111L239 112L238 111M128 112L129 113L128 112M151 112L152 113L151 112M194 112L195 113L194 112M236 112L237 113L236 112M234 113L235 114L234 113M250 113L251 114L250 113M127 114L128 115L127 114M232 114L233 115L232 114M90 115L91 116L90 115M195 115L196 116L195 115M230 115L231 116L230 115M247 115L248 116L247 115M227 116L228 117L227 116M245 116L246 117L245 116M126 117L127 118L126 117M196 117L197 118L196 117M225 117L226 118L225 117M244 117L245 118L244 117M89 118L90 119L89 118M223 118L224 119L223 118M242 118L243 119L242 118M197 119L198 120L197 119M221 119L222 120L221 119M88 120L89 121L88 120M219 120L220 121L219 120M239 120L240 121L239 120M216 121L217 122L216 121M237 121L238 122L237 121M124 122L125 123L124 122M196 122L197 123L196 122M214 122L215 123L214 122M236 122L237 123L236 122M156 123L157 124L156 123M194 123L195 124L194 123M212 123L213 124L212 123M234 123L235 124L234 123M191 124L192 125L191 124M210 124L211 125L210 124M123 125L124 126L123 125M157 125L158 126L157 125M189 125L190 126L189 125M208 125L209 126L208 125M231 125L232 126L231 125M187 126L188 127L187 126M205 126L206 127L205 126M122 127L123 128L122 127M158 127L159 128L158 127M185 127L186 128L185 127M203 127L204 128L203 127M228 127L229 128L228 127M85 128L86 129L85 128M182 128L183 129L182 128M201 128L202 129L201 128M226 128L227 129L226 128M180 129L181 130L180 129M199 129L200 130L199 129M225 129L226 130L225 129M121 130L122 131L121 130M157 130L158 131L157 130M178 130L179 131L178 130M197 130L198 131L197 130M223 130L224 131L223 130M84 131L85 132L84 131M194 131L195 132L194 131M154 132L155 133L154 132M173 132L174 133L173 132M192 132L193 133L192 132M220 132L221 133L220 132M83 133L84 134L83 133M171 133L172 134L171 133M190 133L191 134L190 133M218 133L219 134L218 133M151 134L152 135L151 134M169 134L170 135L169 134M188 134L189 135L188 134M217 134L218 135L217 134M119 135L120 136L119 135M149 135L150 136L149 135M186 135L187 136L186 135M148 136L149 137L148 136M164 136L165 137L164 136M146 137L147 138L146 137M162 137L163 138L162 137M181 137L182 138L181 137M212 137L213 138L212 137M118 138L119 139L118 138M160 138L161 139L160 138M179 138L180 139L179 138M143 139L144 140L143 139M157 139L158 140L157 139M177 139L178 140L177 139M209 139L210 140L209 139M117 140L118 141L117 140M155 140L156 141L155 140M175 140L176 141L175 140M207 140L208 141L207 140M80 141L81 142L80 141M140 141L141 142L140 141M153 141L154 142L153 141M173 141L174 142L173 141M138 142L139 143L138 142M151 142L152 143L151 142M170 142L171 143L170 142M204 142L205 143L204 142M116 143L117 144L116 143M137 143L138 144L137 143M148 143L149 144L148 143M168 143L169 144L168 143M79 144L80 145L79 144M135 144L136 145L135 144M146 144L147 145L146 144M166 144L167 145L166 144M201 144L202 145L201 144M144 145L145 146L144 145M164 145L165 146L164 145M199 145L200 146L199 145M78 146L79 147L78 146M132 146L133 147L132 146M141 146L142 147L141 146M162 146L163 147L162 146M198 146L199 147L198 146M139 147L140 148L139 147M159 147L160 148L159 147M114 148L115 149L114 148M137 148L138 149L137 148M157 148L158 149L157 148M127 149L128 150L127 149M134 149L135 150L134 149M155 149L156 150L155 149M193 149L194 150L193 149M126 150L127 151L126 150M132 150L133 151L132 150M153 150L154 151L153 150M191 150L192 151L191 150M113 151L114 152L113 151M124 151L125 152L124 151M130 151L131 152L130 151M151 151L152 152L151 151M190 151L191 152L190 151M123 152L124 153L123 152M127 152L128 153L127 152M188 152L189 153L188 152M112 153L113 154L112 153M121 153L122 154L121 153M125 153L126 154L125 153M146 153L147 154L146 153z"/>
<path style="fill:#bbbbbb; stroke:none;" d="M10 283L10 284L80 273.08L228 248.92L309 236L309 235L193 240.921L118 245L118 244C146.493 234.921 168.514 207.561 196 196L210 228L253 225C249.777 206.919 235.32 187.183 226.781 171C224.823 167.29 221.136 154.83 216.725 153.878C212.431 152.951 205.419 159.165 202 161.319C189.031 169.488 175.968 177.508 163 185.681C112.16 217.724 62.4685 253.789 10 283z"/>
<path style="fill:#24a4df; stroke:none;" d="M75 154L76 155L75 154M120.333 154.667L120.667 155.333L120.333 154.667M122 154L123 155L122 154M144 154L145 155L144 154M185 154L186 155L185 154z"/>
<path style="fill:#27abe1; stroke:none;" d="M119 155L120 156L119 155z"/>
<path style="fill:#24a4df; stroke:none;" d="M111 156L112 157L111 156M140 156L141 157L140 156M182 156L183 157L182 156M74 157L75 158L74 157M138 157L139 158L138 157M180 157L181 158L180 157M135 158L136 159L135 158M73 159L74 160L73 159M133 159L134 160L133 159M177 159L178 160L177 159M131 160L132 161L131 160M109 161L110 162L109 161M129 161L130 162L129 161M174 161L175 162L174 161M127 162L128 163L127 162M172 162L173 163L172 162M124 163L125 164L124 163M171 163L172 164L171 163M108 164L109 165L108 164M122 164L123 165L122 164M169 164L170 165L169 164M120 165L121 166L120 165M107 166L108 167L107 166M118 166L119 167L118 166M166 166L167 167L166 166M70 167L71 168L70 167M116 167L117 168L116 167M164 167L165 168L164 167M163 168L164 169L163 168M106 169L107 170L106 169M111 169L112 170L111 169M69 170L70 171L69 170M109 170L110 171L109 170M158 171L159 172L158 171M68 172L69 173L68 172M105 172L106 173L105 172M156 172L157 173L156 172M155 173L156 174L155 173M153 174L154 175L153 174M150 176L151 177L150 176M147 178L148 179L147 178M145 179L146 180L145 179M65 180L66 181L65 180M142 181L143 182L142 181M64 183L65 184L64 183M139 183L140 184L139 183M137 184L138 185L137 184M63 185L64 186L63 185M134 186L135 187L134 186M62 188L63 189L62 188M131 188L132 189L131 188M129 189L130 190L129 189M128 190L129 191L128 190M126 191L127 192L126 191M60 193L61 194L60 193M123 193L124 194L123 193M121 194L122 195L121 194M120 195L121 196L120 195M59 196L60 197L59 196z"/>
<path style="fill:#b4b4b4; stroke:none;" d="M193 196L194 197L193 196z"/>
<path style="fill:#24a4df; stroke:none;" d="M115 198L116 199L115 198M113 199L114 200L113 199z"/>
<path style="fill:#b4b4b4; stroke:none;" d="M189 199L190 200L189 199z"/>
<path style="fill:#24a4df; stroke:none;" d="M112 200L113 201L112 200z"/>
<path style="fill:#b4b4b4; stroke:none;" d="M197 200L198 201L197 200z"/>
<path style="fill:#24a4df; stroke:none;" d="M57 201L58 202L57 201z"/>
<path style="fill:#b4b4b4; stroke:none;" d="M186 201L187 202L186 201z"/>
<path style="fill:#24a4df; stroke:none;" d="M107 203L108 204L107 203z"/>
<path style="fill:#b4b4b4; stroke:none;" d="M183 203L184 204L183 203z"/>
<path style="fill:#24a4df; stroke:none;" d="M105 204L106 205L105 204M104 205L105 206L104 205z"/>
<path style="fill:#b4b4b4; stroke:none;" d="M180 205L181 206L180 205z"/>
<path style="fill:#24a4df; stroke:none;" d="M55 206L56 207L55 206M99 208L100 209L99 208z"/>
<path style="fill:#b4b4b4; stroke:none;" d="M175 208L176 209L175 208z"/>
<path style="fill:#24a4df; stroke:none;" d="M97 209L98 210L97 209z"/>
<path style="fill:#b4b4b4; stroke:none;" d="M201 209L202 210L201 209z"/>
<path style="fill:#24a4df; stroke:none;" d="M96 210L97 211L96 210z"/>
<path style="fill:#b4b4b4; stroke:none;" d="M172 210L173 211L172 210z"/>
<path style="fill:#24a4df; stroke:none;" d="M94 211L95 212L94 211M91 213L92 214L91 213z"/>
<path style="fill:#b4b4b4; stroke:none;" d="M167 213L168 214L167 213z"/>
<path style="fill:#24a4df; stroke:none;" d="M52 214L53 215L52 214M88 215L89 216L88 215z"/>
<path style="fill:#b4b4b4; stroke:none;" d="M164 215L165 216L164 215z"/>
<path style="fill:#24a4df; stroke:none;" d="M86 216L87 217L86 216z"/>
<path style="fill:#b4b4b4; stroke:none;" d="M162 216L163 217L162 216z"/>
<path style="fill:#24a4df; stroke:none;" d="M51 217L52 218L51 217M83 218L84 219L83 218z"/>
<path style="fill:#b4b4b4; stroke:none;" d="M159 218L160 219L159 218z"/>
<path style="fill:#24a4df; stroke:none;" d="M80 220L81 221L80 220z"/>
<path style="fill:#b4b4b4; stroke:none;" d="M156 220L157 221L156 220z"/>
<path style="fill:#24a4df; stroke:none;" d="M78 221L79 222L78 221M49 222L50 223L49 222z"/>
<path style="fill:#b4b4b4; stroke:none;" d="M153 222L154 223L153 222z"/>
<path style="fill:#24a4df; stroke:none;" d="M75 223L76 224L75 223M72 225L73 226L72 225z"/>
<path style="fill:#b4b4b4; stroke:none;" d="M148 225L149 226L148 225M242 225L242 226L245 226L242 225z"/>
<path style="fill:#24a4df; stroke:none;" d="M70 226L71 227L70 226z"/>
<path style="fill:#b4b4b4; stroke:none;" d="M209 226L210 227L209 226M225.667 226.333L226.333 226.667L225.667 226.333z"/>
<path style="fill:#24a4df; stroke:none;" d="M47 227L48 228L47 227z"/>
<path style="fill:#b4b4b4; stroke:none;" d="M145 227L146 228L145 227M213 227L214 228L213 227z"/>
<path style="fill:#24a4df; stroke:none;" d="M67 228L68 229L67 228z"/>
<path style="fill:#b4b4b4; stroke:none;" d="M142 229L143 230L142 229z"/>
<path style="fill:#24a4df; stroke:none;" d="M64 230L65 231L64 230M62 231L63 232L62 231z"/>
<path style="fill:#b4b4b4; stroke:none;" d="M139 231L140 232L139 231z"/>
<path style="fill:#24a4df; stroke:none;" d="M59 233L60 234L59 233z"/>
<path style="fill:#b4b4b4; stroke:none;" d="M134 234L135 235L134 234z"/>
<path style="fill:#24a4df; stroke:none;" d="M44 235L45 236L44 235M56 235L57 236L56 235z"/>
<path style="fill:#b4b4b4; stroke:none;" d="M293.667 235.333L294.333 235.667L293.667 235.333M309 235L310 236L309 235z"/>
<path style="fill:#24a4df; stroke:none;" d="M54 236L55 237L54 236z"/>
<path style="fill:#b4b4b4; stroke:none;" d="M131 236L132 237L131 236M274.667 236.333L275.333 236.667L274.667 236.333M303 236L304 237L303 236M255.667 237.333L256.333 237.667L255.667 237.333M297 237L298 238L297 237z"/>
<path style="fill:#24a4df; stroke:none;" d="M43 238L44 239L43 238M51 238L52 239L51 238z"/>
<path style="fill:#b4b4b4; stroke:none;" d="M128 238L129 239L128 238M236.667 238.333L237.333 238.667L236.667 238.333M291 238L292 239L291 238M126 239L127 240L126 239M217.667 239.333L218.333 239.667L217.667 239.333M285 239L286 240L285 239z"/>
<path style="fill:#24a4df; stroke:none;" d="M48 240L49 241L48 240z"/>
<path style="fill:#b4b4b4; stroke:none;" d="M198.667 240.333L199.333 240.667L198.667 240.333M279 240L280 241L279 240z"/>
<path style="fill:#24a4df; stroke:none;" d="M46 241L47 242L46 241z"/>
<path style="fill:#b4b4b4; stroke:none;" d="M123 241L124 242L123 241M179.667 241.333L180.333 241.667L179.667 241.333M272 241L273 242L272 241z"/>
<path style="fill:#24a4df; stroke:none;" d="M45 242L46 243L45 242z"/>
<path style="fill:#b4b4b4; stroke:none;" d="M160.667 242.333L161.333 242.667L160.667 242.333M266 242L267 243L266 242z"/>
<path style="fill:#24a4df; stroke:none;" d="M41.3333 243.667L41.6667 244.333L41.3333 243.667M43 243L44 244L43 243z"/>
<path style="fill:#b4b4b4; stroke:none;" d="M141.667 243.333L142.333 243.667L141.667 243.333M260 243L261 244L260 243M118 244L119 245L118 244M122.667 244.333L123.333 244.667L122.667 244.333M254 244L255 245L254 244M248 245L249 246L248 245M242 246L243 247L242 246M236 247L237 248L236 247M230 248L231 249L230 248M224 249L225 250L224 249M217 250L218 251L217 250M211 251L212 252L211 251M205 252L206 253L205 252M199 253L200 254L199 253M193 254L194 255L193 254M187 255L188 256L187 255M181 256L182 257L181 256M175 257L176 258L175 257M169 258L170 259L169 258M163 259L164 260L163 259M156 260L157 261L156 260M150 261L151 262L150 261M144 262L145 263L144 262M138 263L139 264L138 263M132 264L133 265L132 264M126 265L127 266L126 265M120 266L121 267L120 266M114 267L115 268L114 267M108 268L109 269L108 268M101 269L102 270L101 269M95 270L96 271L95 270M89 271L90 272L89 271M83 272L84 273L83 272M77 273L78 274L77 273M71 274L72 275L71 274M65 275L66 276L65 275M59 276L60 277L59 276M53 277L54 278L53 277M47 278L48 279L47 278M40 279L41 280L40 279M34 280L35 281L34 280M28 281L29 282L28 281M22 282L23 283L22 282M16 283L17 284L16 283M10 284L11 285L10 284z"/>
</svg>
